#N canvas 146 140 545 490 12;
#X msg 132 237 1 2 3 4;
#X text 345 419 see also:;
#X text 117 49 - websocket client;
#X obj 114 405 print client_text;
#X obj 77 433 print client_binary;
#X obj 47 49 wsclient;
#X text 14 9 Websockets for Pd;
#X text 48 83 A websocket client. It can receive binary- and text-data. The optional argument specifies if sending text (0) or binary (1) data.;
#X obj 423 418 wsserver;
#X msg 77 149 connect ws://localhost:10000;
#X msg 87 172 connect ws://localhost:12000;
#X msg 97 195 disconnect;
#X text 194 237 send data;
#X obj 77 308 wsclient -t;
#X obj 151 376 tgl 19 0 empty empty empty 0 -10 0 12 #fcfcfc #000000 #000000 0 1;
#X text 178 375 connected;
#X msg 152 263 list foo bar;
#X text 169 308 optional argument: send mode (binary per default);
#X text 191 326 -b: binary (this is the default);
#X text 191 342 -t: text;
#X text 249 264 send text (in text-mode only);
#N canvas 1208 506 289 195 META 0;
#X text 12 165 AUTHOR Ingo Randolf;
#X text 12 65 INLET_0 data;
#X text 12 5 DESCRIPTION Websocket client for pd;
#X text 12 25 KEYWORDS websocket;
#X text 12 45 LICENSE GPL v3;
#X text 12 85 OUTLET_0 binary outlet;
#X text 12 105 OUTLET_1 text outlet;
#X text 12 125 OUTLET_2 connected;
#X restore 455 17 pd META;
#N canvas 304 241 387 139 peer-verification 0;
#X obj 36 85 wsclient -noverify;
#X text 33 26 Per default ssl peer verification is turned on. It can be turned off using -noverify, f 47;
#X restore 355 206 pd peer-verification;
#X text 323 206 -->;
#X connect 0 0 13 0;
#X connect 9 0 13 0;
#X connect 10 0 13 0;
#X connect 11 0 13 0;
#X connect 13 0 4 0;
#X connect 13 1 3 0;
#X connect 13 2 14 0;
#X connect 16 0 13 0;
