#N canvas 207 214 586 487 12;
#X msg 133 205 1 2 3 4;
#X floatatom 126 378 5 0 0 0 - - - 0;
#X text 166 377 connected clients;
#X msg 77 117 listen 10000;
#X msg 113 164 listen 0;
#X msg 93 140 listen 12000;
#X text 179 116 bind to port 10000;
#X text 193 139 bind to port 12000;
#X text 220 433 received data;
#X text 416 390 see also:;
#X text 117 49 - websocket server;
#X obj 77 434 print server_binary;
#X text 244 404 received data;
#X obj 101 405 print server_text;
#X obj 494 389 wsclient;
#X obj 47 49 wsserver;
#X text 14 9 Websockets for Pd;
#X text 49 83 A websocket server to send and receive binary or text data.;
#X obj 151 351 tgl 19 0 empty empty empty 0 -10 0 12 #fcfcfc #000000 #000000 0 1;
#X text 176 351 listening;
#X text 200 206 send data to all connected clients;
#X msg 149 231 list foo bar;
#X text 246 232 send text to all connected clients (in text-mode only), f 34;
#X text 186 165 stop listening;
#X text 168 283 optional argument: send mode (binary per default);
#X obj 77 283 wsserver -t;
#X text 190 301 -b: binary (this is the default);
#X text 190 317 -t: text;
#N canvas 318 414 289 223 META 0;
#X text 12 185 AUTHOR Ingo Randolf;
#X text 12 65 INLET_0 data;
#X text 12 25 KEYWORDS websocket;
#X text 12 45 LICENSE GPL v3;
#X text 12 85 OUTLET_0 binary outlet;
#X text 12 105 OUTLET_1 text outlet;
#X text 12 5 DESCRIPTION Websocket server for pd;
#X text 12 125 OUTLET_2 connected clients;
#X text 12 145 OUTLET_3 listening;
#X restore 455 17 pd META;
#X connect 0 0 25 0;
#X connect 3 0 25 0;
#X connect 4 0 25 0;
#X connect 5 0 25 0;
#X connect 21 0 25 0;
#X connect 25 0 11 0;
#X connect 25 1 13 0;
#X connect 25 2 1 0;
#X connect 25 3 18 0;
